<svg width="20" height="20" viewBox="0 0 20 20" fill="none" xmlns="http://www.w3.org/2000/svg">
<path fill-rule="evenodd" clip-rule="evenodd" d="M10.0001 1.34999C9.02423 1.34999 8.09337 1.75221 7.41084 2.46003C6.72908 3.16704 6.35006 4.12107 6.35006 5.1111V6.35001H5.36988C4.25789 6.35001 3.32938 7.19794 3.22871 8.30536L2.50144 16.3054C2.38697 17.5644 3.37834 18.65 4.64261 18.65H15.3575C16.6218 18.65 17.6131 17.5644 17.4987 16.3054L16.7714 8.30535C16.6707 7.19793 15.7422 6.35001 14.6302 6.35001H13.6501V5.1111C13.6501 4.12107 13.271 3.16704 12.5893 2.46003C11.9067 1.75221 10.9759 1.34999 10.0001 1.34999ZM12.3501 7.65001V8.99999C12.3501 9.35898 12.6411 9.64999 13.0001 9.64999C13.359 9.64999 13.6501 9.35898 13.6501 8.99999V7.65001H14.6302C15.0699 7.65001 15.4369 7.98523 15.4767 8.42305L16.204 16.423C16.2493 16.9208 15.8573 17.35 15.3575 17.35H4.64261C4.14278 17.35 3.75085 16.9208 3.7961 16.423L4.52337 8.42305C4.56317 7.98523 4.93026 7.65001 5.36988 7.65001H6.35006V8.99999C6.35006 9.35898 6.64107 9.64999 7.00006 9.64999C7.35904 9.64999 7.65006 9.35898 7.65006 8.99999V7.65001H12.3501ZM12.3501 6.35001V5.1111C12.3501 4.4509 12.0969 3.82229 11.6535 3.3624C11.2108 2.90332 10.6155 2.64999 10.0001 2.64999C9.38458 2.64999 8.78932 2.90332 8.34664 3.3624C7.90318 3.82229 7.65006 4.4509 7.65006 5.1111V6.35001H12.3501Z" fill="#1A1A1A"/>
</svg>
