<svg width="20" height="20" viewBox="0 0 20 20" fill="none" xmlns="http://www.w3.org/2000/svg">
<path fill-rule="evenodd" clip-rule="evenodd" d="M7.01822 4.09311C6.5492 4.04307 6.07491 4.09069 5.6252 4.23297C5.1755 4.37525 4.76012 4.60909 4.40523 4.91979C4.05034 5.23048 3.76363 5.61129 3.56314 6.03824C3.36265 6.46518 3.25274 6.92902 3.24032 7.40053C3.2279 7.87204 3.31324 8.34102 3.49097 8.77793C3.66871 9.21483 3.93498 9.61021 4.27302 9.93916L4.27775 9.94377L4.27773 9.94379L9.99997 15.6111L15.7222 9.94379C15.7386 9.92752 15.7557 9.91213 15.7733 9.89763C16.0856 9.57823 16.3323 9.20053 16.4994 8.78579C16.6751 8.34965 16.7589 7.88193 16.7455 7.41192C16.7322 6.94191 16.6219 6.47971 16.4217 6.05426C16.2215 5.62881 15.9356 5.24927 15.582 4.93938C15.2283 4.6295 14.8145 4.39594 14.3665 4.25334C13.9184 4.11073 13.4458 4.06214 12.9781 4.11061C12.5104 4.15908 12.0577 4.30356 11.6484 4.53502C11.2391 4.76647 10.882 5.07992 10.5994 5.45573C10.4573 5.64475 10.2344 5.75566 9.99788 5.755C9.7614 5.75434 9.53908 5.64219 9.39802 5.45239C9.11665 5.07382 8.75995 4.75762 8.35038 4.52368C7.94081 4.28974 7.48723 4.14314 7.01822 4.09311ZM16.7233 11.0634L10.5277 17.1995C10.2354 17.489 9.7645 17.489 9.4722 17.1995L3.22444 11.0118C2.73917 10.5389 2.35686 9.97079 2.10154 9.34314C1.84578 8.71442 1.72297 8.03955 1.74084 7.36103C1.75871 6.68251 1.91688 6.01505 2.20539 5.40066C2.49389 4.78628 2.90648 4.23828 3.41718 3.79118C3.92787 3.34409 4.52561 3.00757 5.17275 2.80284C5.81988 2.5981 6.5024 2.52957 7.17733 2.60157C7.85225 2.67357 8.50496 2.88453 9.09434 3.22117C9.42274 3.40874 9.72751 3.63307 10.0031 3.88919C10.2785 3.63602 10.5827 3.41445 10.91 3.22933C11.499 2.89626 12.1504 2.68834 12.8234 2.6186C13.4965 2.54885 14.1766 2.61877 14.8214 2.82399C15.4662 3.0292 16.0616 3.36529 16.5705 3.81123C17.0794 4.25716 17.4908 4.80333 17.7789 5.41556C18.067 6.02779 18.2257 6.6929 18.2449 7.36927C18.2642 8.04563 18.1436 8.71868 17.8907 9.3463C17.6379 9.97392 17.2582 10.5426 16.7755 11.0167C16.7587 11.0332 16.7413 11.0488 16.7233 11.0634Z" fill="#1A1A1A"/>
</svg>
