<svg width="20" height="20" viewBox="0 0 20 20" fill="none" xmlns="http://www.w3.org/2000/svg">
<path fill-rule="evenodd" clip-rule="evenodd" d="M10 1.75C5.44365 1.75 1.75 5.44365 1.75 10C1.75 14.5563 5.44365 18.25 10 18.25C14.5563 18.25 18.25 14.5563 18.25 10C18.25 5.44365 14.5563 1.75 10 1.75ZM9.89076 3.25087C9.9271 3.25029 9.96352 3.25 10 3.25C10.0365 3.25 10.0729 3.25029 10.1092 3.25087C10.7597 4.37955 11.2412 5.59218 11.5427 6.85H8.45735C8.75878 5.59218 9.24029 4.37955 9.89076 3.25087ZM11.6957 3.46477C12.2256 4.54304 12.6216 5.67997 12.8761 6.85H15.9715C15.0956 5.19307 13.5503 3.94462 11.6957 3.46477ZM16.4933 8.15H13.0989C13.1759 8.76157 13.2148 9.37939 13.2148 10C13.2148 10.6206 13.1759 11.2384 13.0989 11.85H16.4933C16.6605 11.2621 16.75 10.6415 16.75 10C16.75 9.3585 16.6605 8.7379 16.4933 8.15ZM15.9715 13.15H12.8761C12.6216 14.32 12.2256 15.457 11.6957 16.5352C13.5503 16.0554 15.0956 14.8069 15.9715 13.15ZM10.1093 16.7491C10.0729 16.7497 10.0365 16.75 10 16.75C9.96352 16.75 9.9271 16.7497 9.89076 16.7491C9.24029 15.6205 8.75878 14.4078 8.45735 13.15H11.5427C11.2412 14.4078 10.7597 15.6205 10.1093 16.7491ZM8.3043 16.5352C6.4497 16.0554 4.9044 14.8069 4.02854 13.15H7.12389C7.37846 14.32 7.77437 15.457 8.3043 16.5352ZM3.50666 11.85H6.90112C6.82415 11.2384 6.78518 10.6206 6.78518 10C6.78518 9.37939 6.82415 8.76157 6.90112 8.15H3.50666C3.33949 8.7379 3.25 9.3585 3.25 10C3.25 10.6415 3.33949 11.2621 3.50666 11.85ZM4.02854 6.85H7.12389C7.37846 5.67997 7.77437 4.54303 8.3043 3.46477C6.4497 3.94461 4.9044 5.19307 4.02854 6.85ZM8.08518 10C8.08518 9.37888 8.12797 8.76083 8.21237 8.15H11.7876C11.872 8.76083 11.9148 9.37888 11.9148 10C11.9148 10.6211 11.872 11.2392 11.7876 11.85H8.21237C8.12797 11.2392 8.08518 10.6211 8.08518 10Z" fill="#1A1A1A"/>
</svg>
